{
	"asset":{
		"generator":"Khronos glTF Blender I/O v5.0.21",
		"version":"2.0"
	},
	"scene":0,
	"scenes":[
		{
			"name":"Scene",
			"nodes":[
				0
			]
		}
	],
	"nodes":[
		{
			"mesh":0,
			"name":"Hair",
			"translation":[
				-0.25261589884757996,
				1.8853919506072998,
				0.06431794911623001
			]
		}
	],
	"materials":[
		{
			"doubleSided":true,
			"name":"Cyan",
			"pbrMetallicRoughness":{
				"baseColorFactor":[
					0.04971381649374962,
					0.7156623601913452,
					0.799045205116272,
					1
				],
				"metallicFactor":0,
				"roughnessFactor":0.5
			}
		},
		{
			"doubleSided":true,
			"name":"Skin",
			"pbrMetallicRoughness":{
				"baseColorFactor":[
					0.7380349040031433,
					0.5583160519599915,
					0.4851149022579193,
					1
				],
				"metallicFactor":0,
				"roughnessFactor":0.5
			}
		},
		{
			"doubleSided":true,
			"name":"Face",
			"pbrMetallicRoughness":{
				"baseColorTexture":{
					"index":0
				},
				"metallicFactor":0,
				"roughnessFactor":0.5
			}
		},
		{
			"doubleSided":true,
			"name":"Black",
			"pbrMetallicRoughness":{
				"baseColorFactor":[
					0.05127807334065437,
					0.051267217844724655,
					0.05126576125621796,
					1
				],
				"metallicFactor":0,
				"roughnessFactor":0.5
			}
		},
		{
			"doubleSided":true,
			"name":"Grey",
			"pbrMetallicRoughness":{
				"baseColorFactor":[
					0.3467622995376587,
					0.3466888666152954,
					0.3466790020465851,
					1
				],
				"metallicFactor":0,
				"roughnessFactor":0.5
			}
		},
		{
			"doubleSided":true,
			"name":"Yellow",
			"pbrMetallicRoughness":{
				"baseColorFactor":[
					0.7992379069328308,
					0.5270921587944031,
					0.08227688819169998,
					1
				],
				"metallicFactor":0,
				"roughnessFactor":0.5
			}
		},
		{
			"doubleSided":true,
			"name":"Pink",
			"pbrMetallicRoughness":{
				"baseColorFactor":[
					0.7992382645606995,
					0.01599539816379547,
					0.2704782783985138,
					1
				],
				"metallicFactor":0,
				"roughnessFactor":0.5
			}
		},
		{
			"doubleSided":true,
			"name":"SkinDecal",
			"pbrMetallicRoughness":{
				"metallicFactor":0,
				"roughnessFactor":0.5
			}
		}
	],
	"meshes":[
		{
			"name":"Cylinder.014",
			"primitives":[
				{
					"attributes":{
						"POSITION":0,
						"NORMAL":1,
						"TEXCOORD_0":2
					},
					"indices":3,
					"material":0
				},
				{
					"attributes":{
						"POSITION":4,
						"NORMAL":5,
						"TEXCOORD_0":6
					},
					"indices":7,
					"material":1
				},
				{
					"attributes":{
						"POSITION":8,
						"NORMAL":9,
						"TEXCOORD_0":10
					},
					"indices":11,
					"material":2
				},
				{
					"attributes":{
						"POSITION":12,
						"NORMAL":13,
						"TEXCOORD_0":14
					},
					"indices":15,
					"material":3
				},
				{
					"attributes":{
						"POSITION":16,
						"NORMAL":17,
						"TEXCOORD_0":18
					},
					"indices":19,
					"material":4
				},
				{
					"attributes":{
						"POSITION":20,
						"NORMAL":21,
						"TEXCOORD_0":22
					},
					"indices":23,
					"material":5
				},
				{
					"attributes":{
						"POSITION":24,
						"NORMAL":25,
						"TEXCOORD_0":26
					},
					"indices":27,
					"material":6
				},
				{
					"attributes":{
						"POSITION":28,
						"NORMAL":29,
						"TEXCOORD_0":30
					},
					"indices":31,
					"material":7
				}
			]
		}
	],
	"textures":[
		{
			"sampler":0,
			"source":0
		}
	],
	"images":[
		{
			"mimeType":"image/png",
			"name":"MikuFaceUV.png.001",
			"uri":"hatsune-miku-fumo/textures/MikuFaceUV.png"
		}
	],
	"accessors":[
		{
			"bufferView":0,
			"componentType":5126,
			"count":447,
			"max":[
				5.879001140594482,
				3.0866410732269287,
				3.0930445194244385
			],
			"min":[
				-5.863693714141846,
				-5.394534111022949,
				-4.130926132202148
			],
			"type":"VEC3"
		},
		{
			"bufferView":1,
			"componentType":5126,
			"count":447,
			"type":"VEC3"
		},
		{
			"bufferView":2,
			"componentType":5126,
			"count":447,
			"type":"VEC2"
		},
		{
			"bufferView":3,
			"componentType":5123,
			"count":1641,
			"type":"SCALAR"
		},
		{
			"bufferView":4,
			"componentType":5126,
			"count":182,
			"max":[
				3.4009759426116943,
				-2.440275192260742,
				1.5254005193710327
			],
			"min":[
				-3.4336814880371094,
				-5.394534111022949,
				-0.688662052154541
			],
			"type":"VEC3"
		},
		{
			"bufferView":5,
			"componentType":5126,
			"count":182,
			"type":"VEC3"
		},
		{
			"bufferView":6,
			"componentType":5126,
			"count":182,
			"type":"VEC2"
		},
		{
			"bufferView":7,
			"componentType":5123,
			"count":732,
			"type":"SCALAR"
		},
		{
			"bufferView":8,
			"componentType":5126,
			"count":70,
			"max":[
				2.7738044261932373,
				1.7575119733810425,
				1.9538938999176025
			],
			"min":[
				-2.692298173904419,
				-2.67032527923584,
				-1.8195183277130127
			],
			"type":"VEC3"
		},
		{
			"bufferView":9,
			"componentType":5126,
			"count":70,
			"type":"VEC3"
		},
		{
			"bufferView":10,
			"componentType":5126,
			"count":70,
			"type":"VEC2"
		},
		{
			"bufferView":11,
			"componentType":5123,
			"count":252,
			"type":"SCALAR"
		},
		{
			"bufferView":12,
			"componentType":5126,
			"count":292,
			"max":[
				3.265862464904785,
				2.149454116821289,
				3.0930445194244385
			],
			"min":[
				-3.277482032775879,
				-5.394534111022949,
				-2.484168291091919
			],
			"type":"VEC3"
		},
		{
			"bufferView":13,
			"componentType":5126,
			"count":292,
			"type":"VEC3"
		},
		{
			"bufferView":14,
			"componentType":5126,
			"count":292,
			"type":"VEC2"
		},
		{
			"bufferView":15,
			"componentType":5123,
			"count":792,
			"type":"SCALAR"
		},
		{
			"bufferView":16,
			"componentType":5126,
			"count":67,
			"max":[
				1.553963303565979,
				-2.440275192260742,
				1.33669114112854
			],
			"min":[
				-1.534253478050232,
				-4.362327575683594,
				-1.4753575325012207
			],
			"type":"VEC3"
		},
		{
			"bufferView":17,
			"componentType":5126,
			"count":67,
			"type":"VEC3"
		},
		{
			"bufferView":18,
			"componentType":5126,
			"count":67,
			"type":"VEC2"
		},
		{
			"bufferView":19,
			"componentType":5123,
			"count":153,
			"type":"SCALAR"
		},
		{
			"bufferView":20,
			"componentType":5126,
			"count":4,
			"max":[
				0.6166517734527588,
				-3.020803451538086,
				0.8261473178863525
			],
			"min":[
				0.35376688838005066,
				-3.0947272777557373,
				0.6835154294967651
			],
			"type":"VEC3"
		},
		{
			"bufferView":21,
			"componentType":5126,
			"count":4,
			"type":"VEC3"
		},
		{
			"bufferView":22,
			"componentType":5126,
			"count":4,
			"type":"VEC2"
		},
		{
			"bufferView":23,
			"componentType":5123,
			"count":6,
			"type":"SCALAR"
		},
		{
			"bufferView":24,
			"componentType":5126,
			"count":32,
			"max":[
				3.117501735687256,
				2.0485548973083496,
				0.09222280979156494
			],
			"min":[
				-3.102194309234619,
				0.5129905939102173,
				-1.5613971948623657
			],
			"type":"VEC3"
		},
		{
			"bufferView":25,
			"componentType":5126,
			"count":32,
			"type":"VEC3"
		},
		{
			"bufferView":26,
			"componentType":5126,
			"count":32,
			"type":"VEC2"
		},
		{
			"bufferView":27,
			"componentType":5123,
			"count":48,
			"type":"SCALAR"
		},
		{
			"bufferView":28,
			"componentType":5126,
			"count":6,
			"max":[
				1.671072006225586,
				-2.4968204498291016,
				0.3302494287490845
			],
			"min":[
				0.8958117961883545,
				-3.075909376144409,
				-0.4411128759384155
			],
			"type":"VEC3"
		},
		{
			"bufferView":29,
			"componentType":5126,
			"count":6,
			"type":"VEC3"
		},
		{
			"bufferView":30,
			"componentType":5126,
			"count":6,
			"type":"VEC2"
		},
		{
			"bufferView":31,
			"componentType":5123,
			"count":12,
			"type":"SCALAR"
		}
	],
	"bufferViews":[
		{
			"buffer":0,
			"byteLength":5364,
			"byteOffset":0,
			"target":34962
		},
		{
			"buffer":0,
			"byteLength":5364,
			"byteOffset":5364,
			"target":34962
		},
		{
			"buffer":0,
			"byteLength":3576,
			"byteOffset":10728,
			"target":34962
		},
		{
			"buffer":0,
			"byteLength":3282,
			"byteOffset":14304,
			"target":34963
		},
		{
			"buffer":0,
			"byteLength":2184,
			"byteOffset":17588,
			"target":34962
		},
		{
			"buffer":0,
			"byteLength":2184,
			"byteOffset":19772,
			"target":34962
		},
		{
			"buffer":0,
			"byteLength":1456,
			"byteOffset":21956,
			"target":34962
		},
		{
			"buffer":0,
			"byteLength":1464,
			"byteOffset":23412,
			"target":34963
		},
		{
			"buffer":0,
			"byteLength":840,
			"byteOffset":24876,
			"target":34962
		},
		{
			"buffer":0,
			"byteLength":840,
			"byteOffset":25716,
			"target":34962
		},
		{
			"buffer":0,
			"byteLength":560,
			"byteOffset":26556,
			"target":34962
		},
		{
			"buffer":0,
			"byteLength":504,
			"byteOffset":27116,
			"target":34963
		},
		{
			"buffer":0,
			"byteLength":3504,
			"byteOffset":27620,
			"target":34962
		},
		{
			"buffer":0,
			"byteLength":3504,
			"byteOffset":31124,
			"target":34962
		},
		{
			"buffer":0,
			"byteLength":2336,
			"byteOffset":34628,
			"target":34962
		},
		{
			"buffer":0,
			"byteLength":1584,
			"byteOffset":36964,
			"target":34963
		},
		{
			"buffer":0,
			"byteLength":804,
			"byteOffset":38548,
			"target":34962
		},
		{
			"buffer":0,
			"byteLength":804,
			"byteOffset":39352,
			"target":34962
		},
		{
			"buffer":0,
			"byteLength":536,
			"byteOffset":40156,
			"target":34962
		},
		{
			"buffer":0,
			"byteLength":306,
			"byteOffset":40692,
			"target":34963
		},
		{
			"buffer":0,
			"byteLength":48,
			"byteOffset":41000,
			"target":34962
		},
		{
			"buffer":0,
			"byteLength":48,
			"byteOffset":41048,
			"target":34962
		},
		{
			"buffer":0,
			"byteLength":32,
			"byteOffset":41096,
			"target":34962
		},
		{
			"buffer":0,
			"byteLength":12,
			"byteOffset":41128,
			"target":34963
		},
		{
			"buffer":0,
			"byteLength":384,
			"byteOffset":41140,
			"target":34962
		},
		{
			"buffer":0,
			"byteLength":384,
			"byteOffset":41524,
			"target":34962
		},
		{
			"buffer":0,
			"byteLength":256,
			"byteOffset":41908,
			"target":34962
		},
		{
			"buffer":0,
			"byteLength":96,
			"byteOffset":42164,
			"target":34963
		},
		{
			"buffer":0,
			"byteLength":72,
			"byteOffset":42260,
			"target":34962
		},
		{
			"buffer":0,
			"byteLength":72,
			"byteOffset":42332,
			"target":34962
		},
		{
			"buffer":0,
			"byteLength":48,
			"byteOffset":42404,
			"target":34962
		},
		{
			"buffer":0,
			"byteLength":24,
			"byteOffset":42452,
			"target":34963
		}
	],
	"samplers":[
		{
			"magFilter":9729,
			"minFilter":9987
		}
	],
	"buffers":[
		{
			"byteLength":42476,
			"uri":"Miku.bin"
		}
	]
}
